# xmcd CD database file
#
# Track frame offsets:
#	150
#	11645
#	24217
#	34787
#	46797
#	57112
#	67130
#	78252
#	90940
#	101780
#	114162
#	126370
#	137460
#	149275
#	163617
#	176345
#	189162
#	201565
#
# Disc length: 2830 seconds
#
# Revision: 11
# Processed by: cddbd v1.5.2PL0 Copyright (c) Steve Scherf et al.
# Submitted via: CDex 1.94
#
DISCID=e50b0c12
DTITLE=Various Artist - Chess Blues-Rock Songbook (Classic Originals) CD 2
DYEAR=1998
DGENRE=Blues
TTITLE0=Chuck Berry - Rock And Roll Music
TTITLE1=Jimmy Rogers - Walking By Myself
TTITLE2=Bo Diddley - Mona
TTITLE3=Chuck Berry - Johnny B. Goode
TTITLE4=Dale Hawkins - Susie Q
TTITLE5=Chuck Berry - Memphis
TTITLE6=Chuck Berry - Back In The U.S.A.
TTITLE7=Howlin' Wolf - Back Door Man
TTITLE8=Elmore James - Madison Blues
TTITLE9=Howlin' Wolf - Spoonful
TTITLE10=Muddy Waters - You Shook Me
TTITLE11=Howling Wolf - The Red Rooster
TTITLE12=Sonny Boy Williamson - Bring It On Home
TTITLE13=Sonny Boy Williamson - Help Me
TTITLE14=Tommy Tucker - High Heel Sneakers
TTITLE15=Howlin' Wolf - Killing Floor
TTITLE16=Little Milton - More And More
TTITLE17=Etta James - Tell Mama
EXTD=YEAR: 1998
EXTT0=
EXTT1=
EXTT2=
EXTT3=
EXTT4=
EXTT5=
EXTT6=
EXTT7=
EXTT8=
EXTT9=
EXTT10=
EXTT11=
EXTT12=
EXTT13=
EXTT14=
EXTT15=
EXTT16=
EXTT17=
PLAYORDER=
